<svg width="250" height="250" viewBox="0 0 250 250" fill="none" xmlns="http://www.w3.org/2000/svg">
<rect width="250" height="250" rx="125" fill="white"/>
<path d="M192.535 78.0425H192.69C202.865 76.9551 213.04 67.7897 211.409 56.9932C209.933 47.1287 201.001 40.9149 191.447 42.1576C186.01 42.8567 179.486 46.1966 176.767 51.1677C174.204 55.6727 173.816 61.1098 174.825 66.0809C176.612 74.3919 184.534 78.2756 192.535 78.0425Z" fill="#EB2227"/>
<path d="M72.9959 124.337C74.161 114.239 66.7044 109.579 59.8691 107.792C53.8106 106.394 48.8396 105.617 50.2377 100.957L50.4707 100.491C52.6455 95.8306 58.0827 93.4227 65.3839 91.4809C66.3937 91.2479 67.4034 90.9372 68.4908 90.7042C75.3261 89.1507 83.4041 88.5293 91.1713 87.1312C94.6666 86.5098 98.0066 85.7331 101.113 84.6457C108.337 81.4611 112.997 74.4705 115.949 67.4023C117.192 64.5284 118.124 61.5768 118.823 58.8583C119.91 54.5862 120.687 50.8579 122.008 48.1394C123.328 45.6538 125.192 44.0227 128.144 43.5567C133.891 42.9353 136.222 49.2268 138.086 58.3145C140.261 68.8004 139.95 83.5583 144.999 92.5683C147.717 96.219 152.921 97.5394 159.135 97.5394C166.514 97.5394 175.291 95.5976 183.136 93.2674C192.923 90.3935 201.467 87.7526 206.904 88.2186C209.7 88.4517 211.72 89.5391 212.73 91.9469C212.963 92.5683 213.04 93.2674 213.04 93.9664C211.875 99.6366 202.011 106.239 189.428 113.928C173.505 123.482 153.387 132.104 145.232 141.891C143.834 143.755 142.979 145.852 142.669 148.027C140.416 157.658 148.183 170.164 157.193 180.416C165.815 190.203 173.815 198.514 173.427 203.951C173.116 205.039 172.34 206.049 171.019 206.825C169.699 207.68 168.068 208.068 166.281 207.99C159.135 207.757 148.494 201 136.843 192.378C122.163 181.582 108.337 166.901 97.2298 162.396C96.2201 162.086 95.2103 161.853 94.2006 161.853C86.0449 161.62 78.899 171.406 74.3163 180.96C70.1996 189.815 67.0927 197.427 63.5974 196.728C62.8984 196.572 62.1993 196.106 61.4226 195.252C59.4808 192.999 58.8594 189.116 59.0147 184.145C59.2478 179.251 60.3352 173.426 61.7333 166.979C64.3742 154.94 69.3452 141.813 71.7531 131.172C72.2968 128.764 72.7629 126.511 72.9959 124.337Z" fill="#EB2227"/>
</svg>
